# xmcd
#
# Track frame offsets:
# 150
# 19423
# 39582
# 63220
# 87591
# 107181
# 128997
# 153340
# 171477
# 194284
# 212750
#
# Disc length: 3126 seconds
#
#
# Revision: 0
# Processed by: cddbd v1.5PL3 Copyright (c) Steve Scherf et al.
# Submitted via: FreeRIP 2.70 
#
DISCID=9d0c340b
DTITLE=ELGI - Te caut pe cer
DYEAR=2003
DGENRE=Dance
TTITLE0=Au curs atatea lacrimi
TTITLE1=Te caut pe cer
TTITLE2=Maneaua
TTITLE3=Tu esti tot ce am pe lume
TTITLE4=Nimfomana
TTITLE5=Vickingii
TTITLE6=M-am indragostit de tine
TTITLE7=Nu mai sunt al tau
TTITLE8=Nimeni nu cunoaste femeia
TTITLE9=Adio viata mea (rmx)
TTITLE10=Stil ELGI
EXTD=
EXTT0=
EXTT1=
EXTT2=
EXTT3=
EXTT4=
EXTT5=
EXTT6=
EXTT7=
EXTT8=
EXTT9=
EXTT10=
PLAYORDER=
